<?xml version="1.0" standalone="no"?>
<svg viewBox="0 0 200 200" xmlns="http://www.w3.org/2000/svg">
  <path fill="#9EF0F0" d="M31.2,-64.5C33.8,-52.6,24.7,-30.8,25.3,-18.4C26,-6,36.4,-3,44.3,4.6C52.2,12.1,57.5,24.2,51.2,26.7C44.8,29.2,26.7,22.1,16.2,31.4C5.8,40.7,2.9,66.3,-3.8,73C-10.5,79.6,-21.1,67.2,-32.9,58.7C-44.7,50.1,-57.8,45.5,-66.1,36.4C-74.4,27.3,-77.9,13.6,-72.1,3.3C-66.3,-7,-51.2,-13.9,-43.7,-24.3C-36.1,-34.7,-36.1,-48.6,-30.1,-58.6C-24,-68.5,-12,-74.6,1.1,-76.6C14.3,-78.6,28.6,-76.5,31.2,-64.5Z" transform="translate(100 100)" />
</svg>
