<?xml version="1.0" standalone="no"?>
<svg viewBox="0 0 200 200" xmlns="http://www.w3.org/2000/svg">
  <path fill="#FFD6E8" d="M40.1,-69C50.7,-63.4,57,-50,66.2,-37.2C75.3,-24.4,87.4,-12.2,85.3,-1.2C83.3,9.8,67.2,19.6,56.8,30.3C46.4,41,41.7,52.6,33.2,64.1C24.7,75.7,12.3,87.3,1.2,85.2C-10,83.2,-19.9,67.5,-28,55.7C-36.2,43.9,-42.4,36,-50.7,27.4C-59.1,18.7,-69.4,9.4,-68.2,0.7C-66.9,-7.9,-54.1,-15.9,-48.9,-29.9C-43.7,-43.9,-46.1,-63.9,-39.2,-71.6C-32.3,-79.4,-16.2,-74.8,-0.7,-73.6C14.8,-72.4,29.6,-74.6,40.1,-69Z" transform="translate(100 100)" />
</svg>
