<?xml version="1.0" standalone="no"?>
<svg viewBox="0 0 200 200" xmlns="http://www.w3.org/2000/svg">
  <path fill="#D0E2FF" d="M44.2,-71C55.3,-70.2,60.9,-54.3,63,-40C65.1,-25.6,63.6,-12.8,59.7,-2.3C55.7,8.2,49.2,16.5,46,28.8C42.8,41.2,42.8,57.6,35.7,63.1C28.5,68.5,14.3,62.8,-0.5,63.7C-15.2,64.5,-30.5,71.9,-40.2,68C-50,64.1,-54.2,48.9,-61.6,35.7C-69,22.5,-79.5,11.3,-82.5,-1.7C-85.5,-14.7,-81,-29.5,-73.9,-43.1C-66.7,-56.7,-56.9,-69.1,-44.1,-68.9C-31.4,-68.8,-15.7,-56,0.4,-56.8C16.6,-57.5,33.1,-71.8,44.2,-71Z" transform="translate(100 100)" />
</svg>
